<?xml version="1.0" standalone="no"?>
<!DOCTYPE svg PUBLIC "-//W3C//DTD SVG 20010904//EN"
 "http://www.w3.org/TR/2001/REC-SVG-20010904/DTD/svg10.dtd">
<svg version="1.0" xmlns="http://www.w3.org/2000/svg"
 width="897.000000pt" height="189.000000pt" viewBox="0 0 897.000000 189.000000"
 preserveAspectRatio="xMidYMid meet">

<g transform="translate(0.000000,189.000000) scale(0.100000,-0.100000)"
fill="#000000" stroke="none">
<path d="M7750 1536 l-95 -22 -3 -98 c-3 -90 -1 -97 15 -92 10 2 60 10 111 17
l92 12 0 103 c0 77 -3 104 -12 103 -7 0 -56 -11 -108 -23z"/>
<path d="M3430 1530 c-169 -45 -241 -104 -314 -260 -111 -238 -76 -522 85
-675 177 -169 457 -161 656 20 35 31 71 68 82 83 l19 27 -29 33 -30 33 -39
-31 c-83 -66 -178 -90 -272 -71 -151 32 -229 152 -230 356 0 116 16 187 64
278 32 59 107 137 132 137 13 0 89 -111 169 -245 l27 -46 73 60 c39 33 88 73
107 89 l35 30 -31 38 c-43 54 -117 109 -183 134 -82 32 -222 37 -321 10z"/>
<path d="M480 1485 c0 -45 0 -45 35 -45 27 0 35 -4 35 -18 0 -10 -29 -200 -65
-421 -36 -222 -65 -404 -65 -406 0 -2 -12 -5 -27 -7 -25 -3 -28 -7 -31 -46
l-3 -42 180 0 181 0 0 45 0 45 -41 0 -42 0 6 83 c4 45 10 189 13 320 4 131 10
239 13 241 3 2 67 -126 141 -285 l135 -289 35 0 35 0 104 238 c141 319 152
344 157 339 3 -2 16 -125 29 -273 13 -148 27 -292 30 -321 l6 -52 -38 -3 c-37
-3 -38 -4 -41 -45 l-3 -43 226 0 226 0 -3 43 c-3 37 -6 42 -30 45 -20 2 -28
10 -32 30 -5 23 -103 741 -109 797 -2 16 5 21 36 23 37 3 37 3 37 48 l0 44
-171 -2 -170 -3 -92 -217 c-51 -119 -96 -220 -100 -224 -4 -4 -57 95 -117 219
l-110 227 -185 0 -185 0 0 -45z"/>
<path d="M7233 1336 c-44 -45 -106 -97 -137 -116 -51 -32 -55 -38 -56 -72 l0
-38 50 0 50 0 0 -222 c0 -132 5 -239 11 -263 23 -81 77 -126 170 -140 45 -7
48 -5 148 66 55 40 101 75 101 78 0 3 -9 21 -20 39 l-20 32 -38 -19 c-32 -16
-41 -17 -62 -6 -13 7 -27 21 -31 31 -4 11 -8 103 -8 207 l-1 187 91 0 c83 0
91 -2 96 -21 4 -15 12 -19 32 -17 l26 3 3 -242 2 -243 -25 0 c-23 0 -25 -4
-25 -40 l0 -40 175 0 175 0 0 40 c0 36 -2 40 -25 40 l-25 0 0 303 c0 250 -3
306 -15 324 l-14 21 -141 -44 c-78 -24 -146 -44 -151 -44 -5 0 -9 14 -9 30 l0
30 -86 0 -87 0 6 100 c3 55 2 102 -2 104 -3 2 -22 6 -41 9 -33 4 -41 -2 -117
-77z"/>
<path d="M5610 1158 c-28 -40 -54 -72 -57 -71 -4 1 -15 30 -26 65 -10 35 -20
64 -22 66 -2 2 -62 -15 -134 -38 -95 -30 -131 -45 -131 -57 0 -11 -9 -6 -32
16 -53 52 -113 75 -203 79 -176 8 -308 -93 -308 -235 0 -70 34 -120 121 -181
37 -26 89 -68 116 -94 42 -41 47 -51 41 -75 -3 -16 -14 -36 -22 -46 -15 -16
-18 -15 -48 27 -17 25 -42 65 -56 90 -13 25 -27 46 -30 46 -4 0 -41 -27 -83
-61 l-76 -61 20 -29 c57 -79 152 -124 260 -123 163 1 283 100 283 233 0 90
-27 126 -173 233 -41 30 -84 65 -94 77 -20 22 -27 83 -12 98 5 4 41 -27 82
-71 l73 -79 69 67 c38 36 71 66 74 66 3 0 8 -10 11 -21 5 -17 11 -20 31 -15
l26 6 0 -244 0 -245 -22 -3 c-19 -2 -24 -10 -26 -40 l-3 -38 181 0 181 0 -3
38 c-3 33 -6 37 -32 40 l-29 4 8 186 c5 148 10 191 22 205 19 20 51 22 75 3
38 -28 48 -78 48 -240 l0 -155 -27 -3 c-24 -3 -28 -8 -31 -41 l-3 -37 181 0
181 0 -3 38 c-3 32 -7 37 -30 40 l-28 3 0 182 0 181 26 27 c23 24 30 26 54 17
57 -19 65 -45 68 -235 l4 -172 -29 -3 c-24 -3 -28 -8 -31 -40 l-3 -38 181 0
181 0 -3 38 c-3 32 -7 37 -30 40 l-27 3 -3 237 c-3 220 -5 240 -25 277 -43 80
-105 119 -206 131 l-55 6 -58 -82 -57 -82 -18 35 c-36 69 -101 107 -211 122
l-46 7 -52 -74z"/>
<path d="M1940 1206 c-75 -21 -106 -43 -142 -98 -70 -108 -93 -193 -86 -317 6
-102 34 -176 87 -229 150 -149 421 -100 547 99 l26 42 -25 24 -24 24 -38 -25
c-110 -75 -253 -55 -302 43 -12 24 -20 48 -17 52 3 5 60 9 128 9 68 0 158 3
201 7 l77 6 -6 62 c-14 138 -60 224 -151 280 -43 27 -57 30 -139 32 -51 1
-111 -4 -136 -11z m123 -116 c14 -16 30 -52 36 -80 16 -76 15 -90 -11 -90 -13
0 -47 -3 -77 -7 l-54 -6 6 55 c5 55 49 158 66 158 5 0 20 -13 34 -30z"/>
<path d="M2610 1206 c-93 -26 -122 -52 -173 -152 -46 -90 -60 -158 -55 -259 6
-105 33 -178 89 -233 149 -150 419 -101 545 99 l26 42 -25 24 -24 24 -38 -25
c-110 -75 -253 -55 -302 43 -12 24 -20 47 -18 51 2 4 92 9 200 12 108 3 199 9
202 12 11 11 -15 163 -35 209 -28 62 -80 117 -137 143 -40 19 -66 24 -130 23
-44 0 -100 -6 -125 -13z m119 -110 c24 -26 51 -103 51 -148 0 -22 -4 -28 -22
-28 -13 0 -47 -3 -77 -7 l-54 -6 5 49 c5 51 50 164 66 164 5 0 19 -11 31 -24z"/>
<path d="M4204 1206 c-45 -14 -116 -60 -151 -97 -12 -13 -37 -55 -55 -94 -32
-67 -33 -75 -33 -190 0 -102 3 -127 21 -166 114 -247 511 -244 627 3 55 117
62 273 18 375 -30 68 -101 134 -174 162 -67 24 -186 28 -253 7z m74 -151 c47
-20 78 -50 105 -100 19 -35 22 -56 22 -172 0 -152 -4 -161 -60 -143 -51 17
-100 70 -120 131 -25 73 -16 299 11 299 3 0 21 -7 42 -15z"/>
<path d="M6665 1214 c-78 -20 -117 -39 -145 -70 -127 -145 -151 -412 -50 -553
87 -120 265 -151 418 -74 55 28 139 109 165 160 15 29 15 31 -7 52 l-23 22
-37 -25 c-80 -54 -208 -58 -267 -8 -29 24 -59 76 -59 102 0 6 48 10 133 10 72
0 163 3 201 7 l69 6 -6 78 c-8 125 -68 227 -160 276 -32 17 -187 28 -232 17z
m94 -120 c22 -28 36 -69 45 -131 6 -42 5 -43 -21 -43 -16 0 -52 -3 -82 -7
l-54 -6 7 39 c17 93 52 174 75 174 5 0 19 -12 30 -26z"/>
<path d="M8190 1201 c-30 -9 -65 -23 -76 -29 -33 -17 -94 -116 -122 -196 -22
-63 -24 -83 -20 -176 5 -109 13 -137 59 -206 58 -86 180 -135 291 -115 86 15
142 47 213 122 75 80 85 103 57 131 -19 20 -20 20 -78 -14 -51 -28 -69 -33
-126 -33 -79 0 -110 18 -148 86 -44 78 -25 254 35 333 15 20 15 20 30 0 8 -10
36 -59 61 -109 25 -49 47 -91 49 -94 2 -2 49 22 104 54 l100 57 -20 40 c-32
62 -107 132 -164 151 -63 22 -174 21 -245 -2z"/>
</g>
</svg>
